<?xml version="1.0" encoding="UTF-8"?>
<svg version="1.1" viewBox="0 0 82.331 80" width="80" height="80" xmlns="http://www.w3.org/2000/svg" xmlns:cc="http://creativecommons.org/ns#" xmlns:dc="http://purl.org/dc/elements/1.1/" xmlns:rdf="http://www.w3.org/1999/02/22-rdf-syntax-ns#">
<g transform="translate(-47.749,-966.9)">
<circle cx="65.42" cy="1006.6" r="15.714" fill="#fff" fill-opacity=".5"/>
<path d="m86.07 966.9c-2.1 0.15-3.94 0.56-6.06 0.7 0.92 8.34 2.24 17.03 3.38 25.73-3.07-6.04-5.86-12.38-8.96-18.39-1.91 0.77-3.63 1.73-5.48 2.56 2.9 6.1 5.89 12.12 8.74 18.28 0.14 0 0.1 0.17 0 0-4-3.96-7.74-8.18-11.76-12.11-1.58 1.26-2.862 2.81-4.428 4.07 1.016 1.14 2.056 2.25 3.108 3.36h0.72c8.53 0 15.44 6.95 15.44 15.5 0 8.6-6.93 15.5-15.44 15.5-1.13 0-2.251-0.1-3.349-0.4-3.266 1.6-6.509 3.1-9.68 4.8 0.877 1.8 1.828 3.5 2.563 5.5 5.877-2.8 11.976-5.9 17.696-8.4-0.15 0.6-1.89 1.2-1.86 1.9 0 0 0.87 0.8 1.05 1 1.04 1.1 2.4 2.6 3.26 3.3 0.69-0.6 1.31-1.3 1.98-1.9-0.81 1.6-1.71 3.2-2.56 4.8 1.8 1 3.57 2 5.47 2.9 1.24-2.4 2.54-4.8 3.84-7.1 0-0.1 0-0.2 0.12-0.2 0 0 0 0.2-0.12 0.2-0.84 5.6-2.05 10.9-2.91 16.5 2.08 0.3 4 0.8 6.06 1.1 0.66-3.8 1.28-7.7 2.09-11.3 0.1 1.2 0.24 1.7 0.35 2.9 2.03-0.3 4.08-0.5 6.06-0.8-0.1-2-0.73-4-0.59-5.7 2.4 5.3 5.03 10.4 7.46 15.7 1.98-0.8 3.83-1.7 5.59-2.7-2.6-5.2-5.09-10.4-7.57-15.7-0.14 0-0.1-0.2 0 0 4.66 4.6 9.02 9.6 13.74 14.2 1.55-1.3 2.96-2.8 4.42-4.2-4.52-4.6-9.3-9.6-13.51-14.2 0.75 0.3 1.28 0.8 2.1 1 1.03-1.7 1.99-3.5 2.91-5.3-0.71-0.5-1.56-0.8-2.21-1.3 2.16 0.4 4.32 0.8 6.52 1.2 0.3-2.1 0.73-4 1.05-6.1-2.1-0.4-4.49-0.5-6.29-1.3 3.84-0.4 7.63-0.9 11.41-1.4h-32.51v-9.1h28.21c-0.84-1.7-1.57-3.42-2.45-5.03-2.66 1.26-5.35 2.49-7.92 3.83-0.1-0.4 0.42-0.8 0.7-1.03 5.31-5.2 11.31-10.6 16.65-15.85-1.18-1.72-2.8-3.01-4.19-4.53-5.91 5.7-11.84 11.37-17.82 17 0 0.14-0.17 0.1 0 0 3.24-6.2 6.59-12.28 9.9-18.4-1.65-1.14-3.63-1.96-5.36-3.02-2.9 5.32-5.85 10.6-8.61 16.06 0.17-2.26 0.84-5.05 1.28-7.45-1.89-0.48-3.99-0.75-5.94-1.16-1.03 4.1-1.69 8.56-2.45 12.92-1.44-9.51-2.68-19.11-3.84-28.41zm-37.376 34.8c-0.605 1.6 0.114 3.8-0.408 5.5v0.7c0.822 0.1 0.88 0.2 1.701 0.3-0.06-0.5-0.1-1.1-0.108-1.6 0-1.5 0.235-3 0.68-4.5-0.619-0.2-1.25-0.3-1.865-0.4zm80.696 2c-1.88 0.2-3.74 0.4-5.59 0.7v6.2c2.1-0.3 3.68-0.7 5.78-1v-1c-0.32-1.6 0-3.2-0.19-4.9zm-75.927 12.8c0.156 1.2 0.308 2.4 0.469 3.5 1.004-0.1 2.015-0.2 3.028-0.4-1.315-0.8-2.494-1.9-3.497-3.1z" clip-rule="evenodd" fill="#ff6700" fill-rule="evenodd"/>
<path d="m65.39 989.07c-4.711 0-9.141 1.84-12.473 5.17-3.333 3.33-5.168 7.76-5.168 12.46s1.835 9.1 5.168 12.5c3.332 3.3 7.762 5.1 12.473 5.1 4.71 0 9.14-1.8 12.48-5.1 1.72-1.7 3.03-3.8 3.91-6v10.9h14.98c2.59 0 5.02-0.4 7.22-1.3 2.17-0.8 4.07-2 5.66-3.5 1.77-1.7 3.08-3.7 3.92-6v10.8h16.52v-34.76h-16.52v10.76c-0.84-2.29-2.15-4.34-3.92-6.03-1.58-1.52-3.49-2.7-5.66-3.51-2.2-0.82-4.63-1.23-7.22-1.23h-14.98v10.87c-0.88-2.22-2.19-4.24-3.91-5.96-3.34-3.33-7.77-5.17-12.48-5.17zm0 2.82c8.19 0 14.82 6.64 14.82 14.81 0 8.2-6.63 14.8-14.82 14.8-8.186 0-14.821-6.6-14.821-14.8 0-8.17 6.635-14.81 14.821-14.81zm-3.093 10.81c-0.588 0-1.057 0.1-1.404 0.3-0.349 0.2-0.614 0.5-0.799 0.8-0.186 0.4-0.309 0.8-0.359 1.3s-0.08 1-0.08 1.6 0.02 1.2 0.08 1.7c0.05 0.4 0.174 0.9 0.359 1.2 0.185 0.4 0.448 0.7 0.799 0.8 0.346 0.2 0.815 0.3 1.404 0.3 0.586 0 1.053-0.1 1.403-0.3 0.35-0.1 0.62-0.4 0.8-0.8 0.19-0.3 0.3-0.8 0.36-1.2 0-0.5 0.1-1.1 0.1-1.7s0-1.1-0.1-1.6-0.17-0.9-0.36-1.3c-0.18-0.3-0.45-0.6-0.8-0.8s-0.817-0.3-1.403-0.3zm-9.379 0.1v7.8h1.436v-5.4h0.02l1.916 5.4h1.785v-7.8h-1.438v5.4h-0.02l-1.895-5.4h-1.807zm13.672 0v7.8h2.47c0.53 0 0.96-0.1 1.3-0.2 0.34-0.2 0.61-0.4 0.81-0.8 0.21-0.3 0.33-0.7 0.43-1.2 0.13-0.5 0.13-1.1 0.13-1.8 0-0.6 0-1.1-0.1-1.5-0.1-0.5-0.19-0.9-0.37-1.2-0.19-0.4-0.45-0.6-0.78-0.8-0.34-0.2-0.77-0.3-1.32-0.3zm6.82 0v7.8h4.45v-1.3h-2.88v-2.1h2.61v-1.3h-2.61v-1.8h2.78v-1.3zm-11.113 1c0.231 0 0.419 0.1 0.559 0.2 0.141 0.1 0.246 0.3 0.326 0.5 0.07 0.2 0.124 0.5 0.154 0.9s0.04 0.8 0.04 1.3-0.01 1-0.04 1.4c-0.03 0.3-0.07 0.6-0.154 0.8-0.08 0.3-0.184 0.4-0.326 0.5-0.14 0.2-0.328 0.2-0.559 0.2-0.235 0-0.419 0-0.56-0.2-0.143-0.1-0.248-0.2-0.328-0.5-0.07-0.2-0.133-0.5-0.153-0.8-0.03-0.4-0.04-0.9-0.04-1.4s0-0.9 0.04-1.3c0.02-0.4 0.07-0.7 0.153-0.9 0.08-0.2 0.185-0.4 0.328-0.5 0.141-0.1 0.326-0.2 0.56-0.2zm5.863 0.2h0.66c0.3 0 0.54 0 0.72 0.2 0.17 0.1 0.3 0.2 0.4 0.5 0.1 0.2 0.18 0.5 0.18 0.8v2.5c0 0.3-0.1 0.6-0.19 0.8-0.1 0.3-0.23 0.4-0.4 0.5s-0.39 0.2-0.66 0.2h-0.7v-5.5z"/>
</g>
</svg>
